HIERARCHY
ROOT Hips
{
	OFFSET -0.001795 -0.223333 0.028219
	CHANNELS 6 Xposition Yposition Zposition Zrotation Yrotation Xrotation 
	JOINT LeftUpLeg
	{
		OFFSET 0.069520 -0.091406 -0.006815
		CHANNELS 3 Zrotation Yrotation Xrotation
		JOINT LeftLeg
		{
			OFFSET 0.034277 -0.375199 -0.004496
			CHANNELS 3 Zrotation Yrotation Xrotation
			JOINT LeftFoot
			{
				OFFSET -0.013596 -0.397961 -0.043693
				CHANNELS 3 Zrotation Yrotation Xrotation
				JOINT LeftToe
				{
					OFFSET 0.026358 -0.055791 0.119288
					CHANNELS 3 Zrotation Yrotation Xrotation
					End Site
					{
						OFFSET 0.000000 0.000000 0.000000
					}
				}
			}
		}
	}
	JOINT RightUpLeg
	{
		OFFSET -0.067670 -0.090522 -0.004320
		CHANNELS 3 Zrotation Yrotation Xrotation
		JOINT RightLeg
		{
			OFFSET -0.038290 -0.382569 -0.008850
			CHANNELS 3 Zrotation Yrotation Xrotation
			JOINT RightFoot
			{
				OFFSET 0.015774 -0.398415 -0.042312
				CHANNELS 3 Zrotation Yrotation Xrotation
				JOINT RightToe
				{
					OFFSET -0.025372 -0.048144 0.123348
					CHANNELS 3 Zrotation Yrotation Xrotation
					End Site
					{
						OFFSET 0.000000 0.000000 0.000000
					}
				}
			}
		}
	}
	JOINT Spine
	{
		OFFSET -0.002533 0.108963 -0.026696
		CHANNELS 3 Zrotation Yrotation Xrotation
		JOINT Spine1
		{
			OFFSET 0.005487 0.135180 0.001092
			CHANNELS 3 Zrotation Yrotation Xrotation
			JOINT Spine2
			{
				OFFSET 0.001457 0.052922 0.025425
				CHANNELS 3 Zrotation Yrotation Xrotation
				JOINT Neck
				{
					OFFSET -0.002778 0.213870 -0.042857
					CHANNELS 3 Zrotation Yrotation Xrotation
					JOINT Head
					{
						OFFSET 0.005152 0.064970 0.051349
						CHANNELS 3 Zrotation Yrotation Xrotation
						End Site
						{
							OFFSET 0.000000 0.000000 0.000000
						}
					}
				}
				JOINT LeftShoulder
				{
					OFFSET 0.078845 0.121749 -0.034090
					CHANNELS 3 Zrotation Yrotation Xrotation
					JOINT LeftArm
					{
						OFFSET 0.090977 0.030469 -0.008868
						CHANNELS 3 Zrotation Yrotation Xrotation
						JOINT LeftForeArm
						{
							OFFSET 0.259612 -0.012772 -0.027456
							CHANNELS 3 Zrotation Yrotation Xrotation
							JOINT LeftHand
							{
								OFFSET 0.249234 0.008986 -0.001171
								CHANNELS 3 Zrotation Yrotation Xrotation
								End Site
								{
									OFFSET 0.000000 0.000000 0.000000
								}
							}
						}
					}
				}
				JOINT RightShoulder
				{
					OFFSET -0.081759 0.118833 -0.038615
					CHANNELS 3 Zrotation Yrotation Xrotation
					JOINT RightArm
					{
						OFFSET -0.096012 0.032551 -0.009143
						CHANNELS 3 Zrotation Yrotation Xrotation
						JOINT RightForeArm
						{
							OFFSET -0.253742 -0.013329 -0.021401
							CHANNELS 3 Zrotation Yrotation Xrotation
							JOINT RightHand
							{
								OFFSET -0.255298 0.007772 -0.005559
								CHANNELS 3 Zrotation Yrotation Xrotation
								End Site
								{
									OFFSET 0.000000 0.000000 0.000000
								}
							}
						}
					}
				}
			}
		}
	}
}
MOTION
Frames: 11
Frame Time: 0.050000
0.000000 0.841903 0.000000 -1.356547 -23.798321 7.407745 3.776632 2.365527 -45.270910 -6.942249 3.563884 26.399909 24.428464 33.972289 24.860141 0.000000 0.000000 0.000000 -1.593710 4.193051 -28.825243 19.201032 -1.715802 58.506662 -9.823598 -11.140840 -41.788091 0.000000 0.000000 0.000000 -7.997052 6.906924 46.344040 3.942808 -0.876469 -22.433932 0.571046 4.064157 28.130657 -5.062839 3.731363 -23.506473 0.000000 0.000000 0.000000 -34.282432 -19.718176 15.092868 -47.206765 -32.510153 3.946561 21.751076 -33.273722 -3.933597 0.000000 0.000000 0.000000 29.137777 25.702436 13.091581 45.311457 20.397620 1.376608 -8.242115 42.998282 -1.416552 0.000000 0.000000 0.000000 
-0.007272 0.841660 0.030403 -3.338670 -24.365463 7.667356 5.322214 3.090117 -44.083250 -6.684444 4.037936 29.483682 24.715595 35.716622 20.481544 0.000000 0.000000 0.000000 -2.141187 5.180752 -33.258602 20.663465 -2.723567 46.861830 -8.871723 -8.429571 -31.301467 0.000000 0.000000 0.000000 -7.192395 7.018458 48.098401 4.797330 -1.251704 -20.479002 0.852076 2.551978 26.008990 -7.510459 4.979981 -23.844971 0.000000 0.000000 0.000000 -36.851505 -16.563894 13.925191 -44.629109 -31.466970 2.894169 22.485581 -35.428258 -4.351210 0.000000 0.000000 0.000000 29.019733 26.138812 12.629033 44.048691 19.210471 1.294727 -5.252484 44.472918 -0.563204 0.000000 0.000000 0.000000 
-0.014527 0.847693 0.058970 -3.966698 -22.966242 7.223403 4.704671 1.953212 -40.626181 -5.277562 3.211060 28.352780 24.178596 37.055556 16.102439 0.000000 0.000000 0.000000 -2.789319 5.508600 -35.906451 18.671722 -2.432666 36.372587 -7.087565 -10.792520 -16.414601 0.000000 0.000000 0.000000 -5.650807 6.424619 50.935819 3.849721 -1.065857 -19.735569 1.771242 1.445517 23.280535 -9.230267 6.153672 -21.535628 0.000000 0.000000 0.000000 -38.160006 -16.760929 14.088693 -47.151323 -30.505626 3.259707 22.276696 -31.849565 -3.873646 0.000000 0.000000 0.000000 27.386040 24.507641 11.285117 46.669978 17.874002 1.137454 -1.945273 44.124836 0.674498 0.000000 0.000000 0.000000 
-0.021463 0.854219 0.084442 -4.367171 -23.674181 6.547176 5.568137 2.136291 -38.320441 -5.972759 3.856994 29.560355 24.465299 37.655482 15.661937 0.000000 0.000000 0.000000 0.345640 7.284009 -38.951240 11.739502 -0.161796 34.173786 -6.115660 -16.688819 1.126054 0.000000 0.000000 0.000000 -5.082920 6.651385 52.665098 3.949458 -1.163808 -19.341892 0.941751 1.009700 22.184183 -9.195558 6.337453 -18.693256 0.000000 0.000000 0.000000 -39.348907 -17.234020 14.724170 -49.060819 -30.662489 3.666846 24.120502 -30.939030 -4.165894 0.000000 0.000000 0.000000 29.600814 25.073349 11.795376 45.936113 15.584393 0.451366 -0.634879 45.080343 1.167875 0.000000 0.000000 0.000000 
-0.028583 0.858675 0.106661 -4.416852 -22.992189 6.453141 5.245362 1.725224 -36.931257 -5.544420 3.748255 30.207182 24.045468 37.775138 14.410075 0.000000 0.000000 0.000000 1.391341 8.057756 -40.625052 8.161864 0.981052 34.566148 -6.070779 -20.895835 17.192555 0.000000 0.000000 0.000000 -3.600143 5.891807 53.934547 2.226554 -0.722717 -19.195495 1.096645 -0.143768 20.671813 -8.285697 5.760460 -16.549437 0.000000 0.000000 0.000000 -38.281796 -17.670311 15.034408 -51.537989 -30.692102 4.322353 25.143638 -30.855202 -4.395585 0.000000 0.000000 0.000000 30.780784 24.656144 11.226951 46.693157 14.008682 0.200532 0.304595 44.143365 1.406636 0.000000 0.000000 0.000000 
-0.035565 0.861074 0.125998 -4.179217 -21.778373 6.543451 5.306644 1.411072 -35.916921 -6.309689 4.010204 30.400339 23.390595 37.819117 12.630383 0.000000 0.000000 0.000000 0.553262 7.767498 -41.210278 9.412252 0.587800 37.446375 -6.735822 -21.754311 19.104495 0.000000 0.000000 0.000000 -2.831272 5.207474 54.492956 2.335620 -0.675689 -20.188368 0.598647 -0.190213 21.367946 -8.962591 6.129558 -18.585126 0.000000 0.000000 0.000000 -39.181941 -17.952617 15.285633 -52.527302 -30.087425 4.153313 26.065049 -32.051457 -4.777368 0.000000 0.000000 0.000000 29.866732 24.734117 11.419782 47.382214 14.083955 0.068057 0.389183 44.543014 1.511605 0.000000 0.000000 0.000000 
-0.042914 0.862829 0.143186 -3.509532 -19.580771 6.328656 4.569097 0.761987 -35.445670 -6.391878 3.937751 31.359517 22.205098 36.944819 11.232729 0.000000 0.000000 0.000000 0.044712 7.256112 -41.117582 9.320392 0.475007 39.625863 -7.755453 -22.880906 20.133193 0.000000 0.000000 0.000000 -1.830515 4.071655 54.747672 2.438917 -0.611185 -20.810577 -0.347453 0.038199 21.857758 -8.094731 5.691879 -18.487474 0.000000 0.000000 0.000000 -38.520969 -18.429934 15.079022 -53.826040 -30.133335 4.539532 26.755998 -34.655981 -5.413405 0.000000 0.000000 0.000000 29.126716 24.948107 11.901712 47.849199 15.934402 0.593196 -0.381318 42.798890 1.262854 0.000000 0.000000 0.000000 
-0.050731 0.862113 0.158149 -2.969882 -17.903165 5.768378 4.354612 0.417979 -35.280782 -6.756909 4.203416 33.508402 21.301108 36.109019 10.384220 0.000000 0.000000 0.000000 -0.438626 6.672090 -40.430772 9.810805 0.115683 41.270305 -8.703600 -23.887398 20.104518 0.000000 0.000000 0.000000 -1.052506 3.250460 55.619392 1.472266 -0.326437 -21.071084 -0.503430 -0.402434 21.068468 -8.868488 6.508372 -15.105810 0.000000 0.000000 0.000000 -38.985610 -18.737423 15.179592 -53.001759 -29.619914 4.254167 26.975226 -36.728953 -5.945898 0.000000 0.000000 0.000000 29.973516 25.487569 12.511024 46.177128 15.769461 0.522414 0.653098 43.236220 1.670140 0.000000 0.000000 0.000000 
-0.059272 0.860602 0.171048 -2.648489 -16.452590 5.095930 4.605224 0.268309 -34.958585 -7.296271 4.563754 35.574846 20.510016 35.336100 9.598595 0.000000 0.000000 0.000000 -1.075798 6.109848 -39.791460 11.142314 -0.653951 42.888018 -9.581420 -24.781251 20.709589 0.000000 0.000000 0.000000 -1.113664 2.905075 55.969764 1.427817 -0.273899 -20.858334 -0.615879 0.043396 21.236631 -9.181583 6.858266 -14.972696 0.000000 0.000000 0.000000 -38.733063 -20.377638 15.886263 -51.854989 -30.553597 4.687067 29.280270 -38.979377 -7.285773 0.000000 0.000000 0.000000 29.196701 26.583513 13.565936 44.736443 17.202141 0.838399 -0.227598 43.406476 1.401040 0.000000 0.000000 0.000000 
-0.068513 0.859612 0.181248 -1.898132 -14.239575 4.893453 3.883638 -0.281465 -34.952211 -6.999916 4.214219 36.684025 19.461727 34.296014 8.501934 0.000000 0.000000 0.000000 -2.216518 5.365926 -39.382990 12.292459 -1.602588 43.623898 -10.705095 -25.987191 21.038654 0.000000 0.000000 0.000000 -1.125968 2.324240 56.541923 1.269480 -0.159194 -21.300846 -0.730044 -0.214420 20.952456 -9.203496 7.082302 -12.890766 0.000000 0.000000 0.000000 -38.983430 -21.234381 16.337795 -50.892497 -31.052778 4.873136 30.590003 -40.548521 -8.182933 0.000000 0.000000 0.000000 29.094033 27.403717 14.351943 44.286679 17.760506 0.982697 -0.508931 43.356320 1.330853 0.000000 0.000000 0.000000 
-0.077866 0.858131 0.188934 -1.812795 -12.432676 4.584373 4.130688 -0.428103 -35.453278 -6.887143 4.117797 38.904756 18.526705 32.959984 8.535146 0.000000 0.000000 0.000000 -1.867442 5.178870 -39.136151 12.349797 -1.986921 44.985342 -11.705098 -26.975225 22.145461 0.000000 0.000000 0.000000 -1.958481 2.356997 57.672764 1.308467 -0.094817 -21.934560 -0.900150 -0.337518 20.836896 -9.516626 7.384834 -12.503164 0.000000 0.000000 0.000000 -37.756473 -21.851358 16.164736 -50.693775 -32.201691 5.547157 30.335204 -40.377229 -8.169921 0.000000 0.000000 0.000000 29.369700 28.514907 15.441682 44.224715 19.445994 1.533252 -1.627393 42.935244 0.951773 0.000000 0.000000 0.000000 
